<mxfile host="Electron" modified="2024-04-16T13:49:51.642Z" agent="Mozilla/5.0 (X11; Linux x86_64) AppleWebKit/537.36 (KHTML, like Gecko) draw.io/24.1.0 Chrome/120.0.6099.109 Electron/28.1.0 Safari/537.36" etag="_Uw3wT1uF9abqapz9w08" version="24.1.0" type="device">
  <diagram name="Page-1" id="KlBYXAm3qs00aUSOPWm3">
    <mxGraphModel dx="3718" dy="1676" grid="1" gridSize="10" guides="1" tooltips="1" connect="1" arrows="0" fold="1" page="1" pageScale="1" pageWidth="850" pageHeight="1100" math="0" shadow="0">
      <root>
        <mxCell id="0" />
        <mxCell id="1" parent="0" />
        <mxCell id="Q_NvquECfaBA3BP7OeUw-50" value="" style="rounded=0;whiteSpace=wrap;html=1;dashed=1;align=left;fontFamily=Red Hat Text;" parent="1" vertex="1">
          <mxGeometry x="60" y="240" width="850" height="1000" as="geometry" />
        </mxCell>
        <mxCell id="Q_NvquECfaBA3BP7OeUw-49" value="" style="rounded=0;whiteSpace=wrap;html=1;dashed=1;align=left;fontFamily=Red Hat Text;" parent="1" vertex="1">
          <mxGeometry x="40" y="213" width="850" height="997" as="geometry" />
        </mxCell>
        <mxCell id="Q_NvquECfaBA3BP7OeUw-1" value="" style="rounded=0;whiteSpace=wrap;html=1;dashed=1;align=left;fontFamily=Red Hat Text;" parent="1" vertex="1">
          <mxGeometry x="-730" y="330" width="400" height="480" as="geometry" />
        </mxCell>
        <mxCell id="Q_NvquECfaBA3BP7OeUw-2" value="redhat-ods-applications" style="text;html=1;align=left;verticalAlign=middle;whiteSpace=wrap;rounded=0;fontFamily=Red Hat Text;fontStyle=1" parent="1" vertex="1">
          <mxGeometry x="-691" y="300" width="180" height="30" as="geometry" />
        </mxCell>
        <mxCell id="Q_NvquECfaBA3BP7OeUw-16" value="" style="edgeStyle=orthogonalEdgeStyle;rounded=0;orthogonalLoop=1;jettySize=auto;html=1;" parent="1" source="Q_NvquECfaBA3BP7OeUw-4" target="Q_NvquECfaBA3BP7OeUw-13" edge="1">
          <mxGeometry relative="1" as="geometry" />
        </mxCell>
        <mxCell id="Q_NvquECfaBA3BP7OeUw-17" value="reconciles" style="edgeLabel;html=1;align=center;verticalAlign=middle;resizable=0;points=[];" parent="Q_NvquECfaBA3BP7OeUw-16" vertex="1" connectable="0">
          <mxGeometry x="-0.159" y="-2" relative="1" as="geometry">
            <mxPoint as="offset" />
          </mxGeometry>
        </mxCell>
        <mxCell id="Q_NvquECfaBA3BP7OeUw-4" value="data-science-pipelines-operator" style="rounded=0;whiteSpace=wrap;html=1;fontFamily=Red Hat Text;" parent="1" vertex="1">
          <mxGeometry x="-653" y="381" width="266" height="60" as="geometry" />
        </mxCell>
        <mxCell id="Q_NvquECfaBA3BP7OeUw-5" value="" style="aspect=fixed;sketch=0;html=1;dashed=0;whitespace=wrap;fillColor=#2875E2;strokeColor=#ffffff;points=[[0.005,0.63,0],[0.1,0.2,0],[0.9,0.2,0],[0.5,0,0],[0.995,0.63,0],[0.72,0.99,0],[0.5,1,0],[0.28,0.99,0]];shape=mxgraph.kubernetes.icon2;prIcon=pod;kubernetesLabel=1;fontFamily=Red Hat Text;" parent="1" vertex="1">
          <mxGeometry x="-673" y="353" width="50" height="48" as="geometry" />
        </mxCell>
        <mxCell id="Q_NvquECfaBA3BP7OeUw-6" value="" style="aspect=fixed;sketch=0;html=1;dashed=0;whitespace=wrap;fillColor=#2875E2;strokeColor=#ffffff;points=[[0.005,0.63,0],[0.1,0.2,0],[0.9,0.2,0],[0.5,0,0],[0.995,0.63,0],[0.72,0.99,0],[0.5,1,0],[0.28,0.99,0]];shape=mxgraph.kubernetes.icon2;prIcon=ns;fontFamily=Red Hat Text;" parent="1" vertex="1">
          <mxGeometry x="-750" y="305" width="50" height="48" as="geometry" />
        </mxCell>
        <mxCell id="Q_NvquECfaBA3BP7OeUw-13" value="DataSciencePipelinesApplication" style="rounded=0;whiteSpace=wrap;html=1;fontFamily=Red Hat Text;" parent="1" vertex="1">
          <mxGeometry x="-653" y="494" width="266" height="60" as="geometry" />
        </mxCell>
        <mxCell id="Q_NvquECfaBA3BP7OeUw-15" value="" style="aspect=fixed;sketch=0;html=1;dashed=0;whitespace=wrap;fillColor=#2875E2;strokeColor=#ffffff;points=[[0.005,0.63,0],[0.1,0.2,0],[0.9,0.2,0],[0.5,0,0],[0.995,0.63,0],[0.72,0.99,0],[0.5,1,0],[0.28,0.99,0]];shape=mxgraph.kubernetes.icon2;kubernetesLabel=1;prIcon=crd" parent="1" vertex="1">
          <mxGeometry x="-673" y="470" width="50" height="48" as="geometry" />
        </mxCell>
        <mxCell id="Q_NvquECfaBA3BP7OeUw-20" value="" style="edgeStyle=orthogonalEdgeStyle;rounded=0;orthogonalLoop=1;jettySize=auto;html=1;" parent="1" source="Q_NvquECfaBA3BP7OeUw-18" target="Q_NvquECfaBA3BP7OeUw-13" edge="1">
          <mxGeometry relative="1" as="geometry" />
        </mxCell>
        <mxCell id="Q_NvquECfaBA3BP7OeUw-21" value="creates" style="edgeLabel;html=1;align=center;verticalAlign=middle;resizable=0;points=[];" parent="Q_NvquECfaBA3BP7OeUw-20" vertex="1" connectable="0">
          <mxGeometry x="-0.1095" y="1" relative="1" as="geometry">
            <mxPoint as="offset" />
          </mxGeometry>
        </mxCell>
        <mxCell id="Q_NvquECfaBA3BP7OeUw-18" value="odh-dashboard" style="rounded=0;whiteSpace=wrap;html=1;fontFamily=Red Hat Text;" parent="1" vertex="1">
          <mxGeometry x="-653" y="614" width="266" height="60" as="geometry" />
        </mxCell>
        <mxCell id="Q_NvquECfaBA3BP7OeUw-19" value="" style="aspect=fixed;sketch=0;html=1;dashed=0;whitespace=wrap;fillColor=#2875E2;strokeColor=#ffffff;points=[[0.005,0.63,0],[0.1,0.2,0],[0.9,0.2,0],[0.5,0,0],[0.995,0.63,0],[0.72,0.99,0],[0.5,1,0],[0.28,0.99,0]];shape=mxgraph.kubernetes.icon2;prIcon=pod;kubernetesLabel=1;fontFamily=Red Hat Text;" parent="1" vertex="1">
          <mxGeometry x="-673" y="586" width="50" height="48" as="geometry" />
        </mxCell>
        <mxCell id="Q_NvquECfaBA3BP7OeUw-22" value="DSP control plane" style="text;strokeColor=none;fillColor=none;html=1;fontSize=24;fontStyle=1;verticalAlign=middle;align=center;" parent="1" vertex="1">
          <mxGeometry x="-560" y="200" width="100" height="40" as="geometry" />
        </mxCell>
        <mxCell id="Q_NvquECfaBA3BP7OeUw-23" value="" style="rounded=0;whiteSpace=wrap;html=1;dashed=1;align=left;fontFamily=Red Hat Text;" parent="1" vertex="1">
          <mxGeometry x="20" y="190" width="850" height="990" as="geometry" />
        </mxCell>
        <mxCell id="Q_NvquECfaBA3BP7OeUw-57" style="edgeStyle=orthogonalEdgeStyle;rounded=0;orthogonalLoop=1;jettySize=auto;html=1;exitX=0.5;exitY=1;exitDx=0;exitDy=0;entryX=0.5;entryY=0;entryDx=0;entryDy=0;" parent="1" source="Q_NvquECfaBA3BP7OeUw-24" target="Q_NvquECfaBA3BP7OeUw-55" edge="1">
          <mxGeometry relative="1" as="geometry" />
        </mxCell>
        <mxCell id="s4e2oOpzXgxO0QDyMeS1-13" value="creates CRs" style="edgeLabel;html=1;align=center;verticalAlign=middle;resizable=0;points=[];" vertex="1" connectable="0" parent="Q_NvquECfaBA3BP7OeUw-57">
          <mxGeometry x="0.0561" y="1" relative="1" as="geometry">
            <mxPoint as="offset" />
          </mxGeometry>
        </mxCell>
        <mxCell id="s4e2oOpzXgxO0QDyMeS1-32" style="edgeStyle=orthogonalEdgeStyle;rounded=0;orthogonalLoop=1;jettySize=auto;html=1;exitX=1;exitY=0.5;exitDx=0;exitDy=0;entryX=1;entryY=0.5;entryDx=0;entryDy=0;" edge="1" parent="1" source="Q_NvquECfaBA3BP7OeUw-24" target="s4e2oOpzXgxO0QDyMeS1-14">
          <mxGeometry relative="1" as="geometry" />
        </mxCell>
        <mxCell id="Q_NvquECfaBA3BP7OeUw-24" value="kfp apiserver&lt;div&gt;(oauth proxy)&lt;/div&gt;" style="rounded=0;whiteSpace=wrap;html=1;fontFamily=Red Hat Text;" parent="1" vertex="1">
          <mxGeometry x="660" y="253" width="120" height="90" as="geometry" />
        </mxCell>
        <mxCell id="Q_NvquECfaBA3BP7OeUw-25" value="" style="aspect=fixed;sketch=0;html=1;dashed=0;whitespace=wrap;fillColor=#2875E2;strokeColor=#ffffff;points=[[0.005,0.63,0],[0.1,0.2,0],[0.9,0.2,0],[0.5,0,0],[0.995,0.63,0],[0.72,0.99,0],[0.5,1,0],[0.28,0.99,0]];shape=mxgraph.kubernetes.icon2;prIcon=pod;kubernetesLabel=1;fontFamily=Red Hat Text;" parent="1" vertex="1">
          <mxGeometry x="640" y="225" width="50" height="48" as="geometry" />
        </mxCell>
        <mxCell id="Q_NvquECfaBA3BP7OeUw-37" style="edgeStyle=orthogonalEdgeStyle;rounded=0;orthogonalLoop=1;jettySize=auto;html=1;exitX=1;exitY=0.5;exitDx=0;exitDy=0;entryX=0;entryY=0.5;entryDx=0;entryDy=0;" parent="1" source="Q_NvquECfaBA3BP7OeUw-26" target="Q_NvquECfaBA3BP7OeUw-30" edge="1">
          <mxGeometry relative="1" as="geometry" />
        </mxCell>
        <mxCell id="Q_NvquECfaBA3BP7OeUw-26" value="apiserver NetworkPolicy" style="rounded=0;whiteSpace=wrap;html=1;fontFamily=Red Hat Text;" parent="1" vertex="1">
          <mxGeometry x="100" y="253" width="120" height="90" as="geometry" />
        </mxCell>
        <mxCell id="Q_NvquECfaBA3BP7OeUw-28" value="" style="aspect=fixed;sketch=0;html=1;dashed=0;whitespace=wrap;fillColor=#2875E2;strokeColor=#ffffff;points=[[0.005,0.63,0],[0.1,0.2,0],[0.9,0.2,0],[0.5,0,0],[0.995,0.63,0],[0.72,0.99,0],[0.5,1,0],[0.28,0.99,0]];shape=mxgraph.kubernetes.icon2;prIcon=netpol" parent="1" vertex="1">
          <mxGeometry x="80" y="230" width="50" height="48" as="geometry" />
        </mxCell>
        <mxCell id="Q_NvquECfaBA3BP7OeUw-53" style="edgeStyle=orthogonalEdgeStyle;rounded=0;orthogonalLoop=1;jettySize=auto;html=1;" parent="1" source="Q_NvquECfaBA3BP7OeUw-30" target="Q_NvquECfaBA3BP7OeUw-51" edge="1">
          <mxGeometry relative="1" as="geometry" />
        </mxCell>
        <mxCell id="Q_NvquECfaBA3BP7OeUw-30" value="apiserver route" style="rounded=0;whiteSpace=wrap;html=1;fontFamily=Red Hat Text;" parent="1" vertex="1">
          <mxGeometry x="300" y="253" width="120" height="90" as="geometry" />
        </mxCell>
        <mxCell id="Q_NvquECfaBA3BP7OeUw-31" value="" style="aspect=fixed;sketch=0;html=1;dashed=0;whitespace=wrap;fillColor=#2875E2;strokeColor=#ffffff;points=[[0.005,0.63,0],[0.1,0.2,0],[0.9,0.2,0],[0.5,0,0],[0.995,0.63,0],[0.72,0.99,0],[0.5,1,0],[0.28,0.99,0]];shape=mxgraph.kubernetes.icon2;kubernetesLabel=1;prIcon=ing" parent="1" vertex="1">
          <mxGeometry x="280" y="220" width="50" height="48" as="geometry" />
        </mxCell>
        <mxCell id="s4e2oOpzXgxO0QDyMeS1-6" style="edgeStyle=orthogonalEdgeStyle;rounded=0;orthogonalLoop=1;jettySize=auto;html=1;exitX=0.9;exitY=0.5;exitDx=0;exitDy=0;exitPerimeter=0;entryX=0;entryY=0.5;entryDx=0;entryDy=0;" edge="1" parent="1" source="Q_NvquECfaBA3BP7OeUw-32" target="Q_NvquECfaBA3BP7OeUw-26">
          <mxGeometry relative="1" as="geometry" />
        </mxCell>
        <mxCell id="s4e2oOpzXgxO0QDyMeS1-7" style="edgeStyle=orthogonalEdgeStyle;rounded=0;orthogonalLoop=1;jettySize=auto;html=1;exitX=0;exitY=0.75;exitDx=0;exitDy=0;" edge="1" parent="1" source="Q_NvquECfaBA3BP7OeUw-32" target="s4e2oOpzXgxO0QDyMeS1-1">
          <mxGeometry relative="1" as="geometry" />
        </mxCell>
        <mxCell id="Q_NvquECfaBA3BP7OeUw-32" value="" style="shape=actor;whiteSpace=wrap;html=1;" parent="1" vertex="1">
          <mxGeometry x="-240" y="820" width="40" height="60" as="geometry" />
        </mxCell>
        <mxCell id="Q_NvquECfaBA3BP7OeUw-38" value="&amp;lt;&amp;lt; data science project &amp;gt;&amp;gt;" style="text;html=1;align=left;verticalAlign=middle;whiteSpace=wrap;rounded=0;fontFamily=Red Hat Text;fontStyle=1" parent="1" vertex="1">
          <mxGeometry x="49" y="160" width="180" height="30" as="geometry" />
        </mxCell>
        <mxCell id="Q_NvquECfaBA3BP7OeUw-39" value="" style="aspect=fixed;sketch=0;html=1;dashed=0;whitespace=wrap;fillColor=#2875E2;strokeColor=#ffffff;points=[[0.005,0.63,0],[0.1,0.2,0],[0.9,0.2,0],[0.5,0,0],[0.995,0.63,0],[0.72,0.99,0],[0.5,1,0],[0.28,0.99,0]];shape=mxgraph.kubernetes.icon2;prIcon=ns;fontFamily=Red Hat Text;" parent="1" vertex="1">
          <mxGeometry x="-10" y="165" width="50" height="48" as="geometry" />
        </mxCell>
        <mxCell id="Q_NvquECfaBA3BP7OeUw-58" style="edgeStyle=orthogonalEdgeStyle;rounded=0;orthogonalLoop=1;jettySize=auto;html=1;entryX=0;entryY=0.5;entryDx=0;entryDy=0;endArrow=classic;endFill=1;" parent="1" source="Q_NvquECfaBA3BP7OeUw-42" target="Q_NvquECfaBA3BP7OeUw-55" edge="1">
          <mxGeometry relative="1" as="geometry" />
        </mxCell>
        <mxCell id="s4e2oOpzXgxO0QDyMeS1-12" value="watches" style="edgeLabel;html=1;align=center;verticalAlign=middle;resizable=0;points=[];" vertex="1" connectable="0" parent="Q_NvquECfaBA3BP7OeUw-58">
          <mxGeometry x="-0.1346" y="-2" relative="1" as="geometry">
            <mxPoint as="offset" />
          </mxGeometry>
        </mxCell>
        <mxCell id="s4e2oOpzXgxO0QDyMeS1-37" style="edgeStyle=orthogonalEdgeStyle;rounded=0;orthogonalLoop=1;jettySize=auto;html=1;exitX=0.5;exitY=1;exitDx=0;exitDy=0;" edge="1" parent="1" source="Q_NvquECfaBA3BP7OeUw-42" target="s4e2oOpzXgxO0QDyMeS1-28">
          <mxGeometry relative="1" as="geometry" />
        </mxCell>
        <mxCell id="s4e2oOpzXgxO0QDyMeS1-38" value="creates" style="edgeLabel;html=1;align=center;verticalAlign=middle;resizable=0;points=[];" vertex="1" connectable="0" parent="s4e2oOpzXgxO0QDyMeS1-37">
          <mxGeometry x="0.2023" y="2" relative="1" as="geometry">
            <mxPoint x="-1" as="offset" />
          </mxGeometry>
        </mxCell>
        <mxCell id="Q_NvquECfaBA3BP7OeUw-42" value="argo workflow controller" style="rounded=0;whiteSpace=wrap;html=1;fontFamily=Red Hat Text;" parent="1" vertex="1">
          <mxGeometry x="275" y="558" width="120" height="90" as="geometry" />
        </mxCell>
        <mxCell id="Q_NvquECfaBA3BP7OeUw-43" value="" style="aspect=fixed;sketch=0;html=1;dashed=0;whitespace=wrap;fillColor=#2875E2;strokeColor=#ffffff;points=[[0.005,0.63,0],[0.1,0.2,0],[0.9,0.2,0],[0.5,0,0],[0.995,0.63,0],[0.72,0.99,0],[0.5,1,0],[0.28,0.99,0]];shape=mxgraph.kubernetes.icon2;prIcon=pod;kubernetesLabel=1;fontFamily=Red Hat Text;" parent="1" vertex="1">
          <mxGeometry x="275" y="530" width="50" height="48" as="geometry" />
        </mxCell>
        <mxCell id="s4e2oOpzXgxO0QDyMeS1-10" style="edgeStyle=orthogonalEdgeStyle;rounded=0;orthogonalLoop=1;jettySize=auto;html=1;exitX=0.5;exitY=0;exitDx=0;exitDy=0;entryX=1;entryY=0.5;entryDx=0;entryDy=0;" edge="1" parent="1" source="Q_NvquECfaBA3BP7OeUw-45" target="Q_NvquECfaBA3BP7OeUw-55">
          <mxGeometry relative="1" as="geometry" />
        </mxCell>
        <mxCell id="s4e2oOpzXgxO0QDyMeS1-11" value="watches" style="edgeLabel;html=1;align=center;verticalAlign=middle;resizable=0;points=[];" vertex="1" connectable="0" parent="s4e2oOpzXgxO0QDyMeS1-10">
          <mxGeometry x="-0.6029" y="-1" relative="1" as="geometry">
            <mxPoint as="offset" />
          </mxGeometry>
        </mxCell>
        <mxCell id="Q_NvquECfaBA3BP7OeUw-45" value="persistance agent" style="rounded=0;whiteSpace=wrap;html=1;fontFamily=Red Hat Text;" parent="1" vertex="1">
          <mxGeometry x="495" y="558" width="120" height="90" as="geometry" />
        </mxCell>
        <mxCell id="Q_NvquECfaBA3BP7OeUw-46" value="" style="aspect=fixed;sketch=0;html=1;dashed=0;whitespace=wrap;fillColor=#2875E2;strokeColor=#ffffff;points=[[0.005,0.63,0],[0.1,0.2,0],[0.9,0.2,0],[0.5,0,0],[0.995,0.63,0],[0.72,0.99,0],[0.5,1,0],[0.28,0.99,0]];shape=mxgraph.kubernetes.icon2;prIcon=pod;kubernetesLabel=1;fontFamily=Red Hat Text;" parent="1" vertex="1">
          <mxGeometry x="475" y="530" width="50" height="48" as="geometry" />
        </mxCell>
        <mxCell id="Q_NvquECfaBA3BP7OeUw-48" value="DSP data plane" style="text;strokeColor=none;fillColor=none;html=1;fontSize=24;fontStyle=1;verticalAlign=middle;align=center;" parent="1" vertex="1">
          <mxGeometry x="395" y="70" width="100" height="40" as="geometry" />
        </mxCell>
        <mxCell id="Q_NvquECfaBA3BP7OeUw-54" style="edgeStyle=orthogonalEdgeStyle;rounded=0;orthogonalLoop=1;jettySize=auto;html=1;entryX=0;entryY=0.5;entryDx=0;entryDy=0;" parent="1" source="Q_NvquECfaBA3BP7OeUw-51" target="Q_NvquECfaBA3BP7OeUw-24" edge="1">
          <mxGeometry relative="1" as="geometry" />
        </mxCell>
        <mxCell id="Q_NvquECfaBA3BP7OeUw-51" value="apiserver service" style="rounded=0;whiteSpace=wrap;html=1;fontFamily=Red Hat Text;" parent="1" vertex="1">
          <mxGeometry x="480" y="253" width="120" height="90" as="geometry" />
        </mxCell>
        <mxCell id="Q_NvquECfaBA3BP7OeUw-52" value="" style="aspect=fixed;sketch=0;html=1;dashed=0;whitespace=wrap;fillColor=#2875E2;strokeColor=#ffffff;points=[[0.005,0.63,0],[0.1,0.2,0],[0.9,0.2,0],[0.5,0,0],[0.995,0.63,0],[0.72,0.99,0],[0.5,1,0],[0.28,0.99,0]];shape=mxgraph.kubernetes.icon2;prIcon=svc" parent="1" vertex="1">
          <mxGeometry x="450" y="220" width="50" height="48" as="geometry" />
        </mxCell>
        <mxCell id="Q_NvquECfaBA3BP7OeUw-55" value="kube apiserver&lt;div&gt;&lt;br&gt;&lt;/div&gt;" style="rounded=0;whiteSpace=wrap;html=1;fontFamily=Red Hat Text;" parent="1" vertex="1">
          <mxGeometry x="385" y="404" width="120" height="90" as="geometry" />
        </mxCell>
        <mxCell id="Q_NvquECfaBA3BP7OeUw-56" value="" style="aspect=fixed;sketch=0;html=1;dashed=0;whitespace=wrap;fillColor=#2875E2;strokeColor=#ffffff;points=[[0.005,0.63,0],[0.1,0.2,0],[0.9,0.2,0],[0.5,0,0],[0.995,0.63,0],[0.72,0.99,0],[0.5,1,0],[0.28,0.99,0]];shape=mxgraph.kubernetes.icon2;kubernetesLabel=1;prIcon=api" parent="1" vertex="1">
          <mxGeometry x="360" y="370" width="50" height="48" as="geometry" />
        </mxCell>
        <mxCell id="s4e2oOpzXgxO0QDyMeS1-5" style="edgeStyle=orthogonalEdgeStyle;rounded=0;orthogonalLoop=1;jettySize=auto;html=1;exitX=1;exitY=0.5;exitDx=0;exitDy=0;entryX=0;entryY=0.5;entryDx=0;entryDy=0;" edge="1" parent="1" source="s4e2oOpzXgxO0QDyMeS1-1" target="Q_NvquECfaBA3BP7OeUw-26">
          <mxGeometry relative="1" as="geometry" />
        </mxCell>
        <mxCell id="s4e2oOpzXgxO0QDyMeS1-1" value="notebook" style="rounded=0;whiteSpace=wrap;html=1;fontFamily=Red Hat Text;" vertex="1" parent="1">
          <mxGeometry x="-653" y="730" width="266" height="60" as="geometry" />
        </mxCell>
        <mxCell id="s4e2oOpzXgxO0QDyMeS1-2" value="" style="aspect=fixed;sketch=0;html=1;dashed=0;whitespace=wrap;fillColor=#2875E2;strokeColor=#ffffff;points=[[0.005,0.63,0],[0.1,0.2,0],[0.9,0.2,0],[0.5,0,0],[0.995,0.63,0],[0.72,0.99,0],[0.5,1,0],[0.28,0.99,0]];shape=mxgraph.kubernetes.icon2;prIcon=pod;kubernetesLabel=1;fontFamily=Red Hat Text;" vertex="1" parent="1">
          <mxGeometry x="-680" y="710" width="50" height="48" as="geometry" />
        </mxCell>
        <mxCell id="s4e2oOpzXgxO0QDyMeS1-4" style="edgeStyle=orthogonalEdgeStyle;rounded=0;orthogonalLoop=1;jettySize=auto;html=1;exitX=1;exitY=0.5;exitDx=0;exitDy=0;entryX=0;entryY=0.5;entryDx=0;entryDy=0;" edge="1" parent="1" source="Q_NvquECfaBA3BP7OeUw-18" target="Q_NvquECfaBA3BP7OeUw-26">
          <mxGeometry relative="1" as="geometry" />
        </mxCell>
        <mxCell id="s4e2oOpzXgxO0QDyMeS1-9" style="edgeStyle=orthogonalEdgeStyle;rounded=0;orthogonalLoop=1;jettySize=auto;html=1;exitX=0.25;exitY=0.2;exitDx=0;exitDy=0;exitPerimeter=0;" edge="1" parent="1" source="Q_NvquECfaBA3BP7OeUw-32" target="Q_NvquECfaBA3BP7OeUw-18">
          <mxGeometry relative="1" as="geometry">
            <Array as="points">
              <mxPoint x="-220" y="852" />
              <mxPoint x="-220" y="870" />
              <mxPoint x="-520" y="870" />
            </Array>
          </mxGeometry>
        </mxCell>
        <mxCell id="s4e2oOpzXgxO0QDyMeS1-14" value="metadata-grpc" style="rounded=0;whiteSpace=wrap;html=1;fontFamily=Red Hat Text;" vertex="1" parent="1">
          <mxGeometry x="690" y="558" width="120" height="90" as="geometry" />
        </mxCell>
        <mxCell id="s4e2oOpzXgxO0QDyMeS1-18" style="edgeStyle=orthogonalEdgeStyle;rounded=0;orthogonalLoop=1;jettySize=auto;html=1;exitX=1;exitY=0.5;exitDx=0;exitDy=0;entryX=0;entryY=0.5;entryDx=0;entryDy=0;" edge="1" parent="1" source="s4e2oOpzXgxO0QDyMeS1-15" target="Q_NvquECfaBA3BP7OeUw-55">
          <mxGeometry relative="1" as="geometry" />
        </mxCell>
        <mxCell id="s4e2oOpzXgxO0QDyMeS1-19" value="watches" style="edgeLabel;html=1;align=center;verticalAlign=middle;resizable=0;points=[];" vertex="1" connectable="0" parent="s4e2oOpzXgxO0QDyMeS1-18">
          <mxGeometry x="-0.4684" y="3" relative="1" as="geometry">
            <mxPoint as="offset" />
          </mxGeometry>
        </mxCell>
        <mxCell id="s4e2oOpzXgxO0QDyMeS1-15" value="scheduled workflow controller" style="rounded=0;whiteSpace=wrap;html=1;fontFamily=Red Hat Text;" vertex="1" parent="1">
          <mxGeometry x="100" y="404" width="120" height="90" as="geometry" />
        </mxCell>
        <mxCell id="s4e2oOpzXgxO0QDyMeS1-16" value="" style="aspect=fixed;sketch=0;html=1;dashed=0;whitespace=wrap;fillColor=#2875E2;strokeColor=#ffffff;points=[[0.005,0.63,0],[0.1,0.2,0],[0.9,0.2,0],[0.5,0,0],[0.995,0.63,0],[0.72,0.99,0],[0.5,1,0],[0.28,0.99,0]];shape=mxgraph.kubernetes.icon2;prIcon=pod;kubernetesLabel=1;fontFamily=Red Hat Text;" vertex="1" parent="1">
          <mxGeometry x="100" y="376" width="50" height="48" as="geometry" />
        </mxCell>
        <mxCell id="s4e2oOpzXgxO0QDyMeS1-20" value="" style="aspect=fixed;sketch=0;html=1;dashed=0;whitespace=wrap;fillColor=#2875E2;strokeColor=#ffffff;points=[[0.005,0.63,0],[0.1,0.2,0],[0.9,0.2,0],[0.5,0,0],[0.995,0.63,0],[0.72,0.99,0],[0.5,1,0],[0.28,0.99,0]];shape=mxgraph.kubernetes.icon2;prIcon=pod;kubernetesLabel=1;fontFamily=Red Hat Text;" vertex="1" parent="1">
          <mxGeometry x="670" y="530" width="50" height="48" as="geometry" />
        </mxCell>
        <mxCell id="s4e2oOpzXgxO0QDyMeS1-31" style="edgeStyle=orthogonalEdgeStyle;rounded=0;orthogonalLoop=1;jettySize=auto;html=1;exitX=0.5;exitY=0;exitDx=0;exitDy=0;entryX=0.5;entryY=1;entryDx=0;entryDy=0;" edge="1" parent="1" source="s4e2oOpzXgxO0QDyMeS1-21" target="s4e2oOpzXgxO0QDyMeS1-14">
          <mxGeometry relative="1" as="geometry" />
        </mxCell>
        <mxCell id="s4e2oOpzXgxO0QDyMeS1-21" value="metadata-grpc&amp;nbsp;service" style="rounded=0;whiteSpace=wrap;html=1;fontFamily=Red Hat Text;" vertex="1" parent="1">
          <mxGeometry x="690" y="707" width="120" height="90" as="geometry" />
        </mxCell>
        <mxCell id="s4e2oOpzXgxO0QDyMeS1-22" value="" style="aspect=fixed;sketch=0;html=1;dashed=0;whitespace=wrap;fillColor=#2875E2;strokeColor=#ffffff;points=[[0.005,0.63,0],[0.1,0.2,0],[0.9,0.2,0],[0.5,0,0],[0.995,0.63,0],[0.72,0.99,0],[0.5,1,0],[0.28,0.99,0]];shape=mxgraph.kubernetes.icon2;prIcon=svc" vertex="1" parent="1">
          <mxGeometry x="660" y="674" width="50" height="48" as="geometry" />
        </mxCell>
        <mxCell id="s4e2oOpzXgxO0QDyMeS1-30" style="edgeStyle=orthogonalEdgeStyle;rounded=0;orthogonalLoop=1;jettySize=auto;html=1;exitX=0.5;exitY=0;exitDx=0;exitDy=0;entryX=0.5;entryY=1;entryDx=0;entryDy=0;" edge="1" parent="1" source="s4e2oOpzXgxO0QDyMeS1-23" target="s4e2oOpzXgxO0QDyMeS1-21">
          <mxGeometry relative="1" as="geometry" />
        </mxCell>
        <mxCell id="s4e2oOpzXgxO0QDyMeS1-23" value="metadata-grpc&amp;nbsp;route" style="rounded=0;whiteSpace=wrap;html=1;fontFamily=Red Hat Text;" vertex="1" parent="1">
          <mxGeometry x="690" y="853" width="120" height="90" as="geometry" />
        </mxCell>
        <mxCell id="s4e2oOpzXgxO0QDyMeS1-24" value="" style="aspect=fixed;sketch=0;html=1;dashed=0;whitespace=wrap;fillColor=#2875E2;strokeColor=#ffffff;points=[[0.005,0.63,0],[0.1,0.2,0],[0.9,0.2,0],[0.5,0,0],[0.995,0.63,0],[0.72,0.99,0],[0.5,1,0],[0.28,0.99,0]];shape=mxgraph.kubernetes.icon2;kubernetesLabel=1;prIcon=ing" vertex="1" parent="1">
          <mxGeometry x="670" y="820" width="50" height="48" as="geometry" />
        </mxCell>
        <mxCell id="s4e2oOpzXgxO0QDyMeS1-25" value="pipeline pod(s)" style="rounded=0;whiteSpace=wrap;html=1;fontFamily=Red Hat Text;" vertex="1" parent="1">
          <mxGeometry x="396" y="752" width="120" height="90" as="geometry" />
        </mxCell>
        <mxCell id="s4e2oOpzXgxO0QDyMeS1-27" value="pipeline pod(s)" style="rounded=0;whiteSpace=wrap;html=1;fontFamily=Red Hat Text;" vertex="1" parent="1">
          <mxGeometry x="386" y="742" width="120" height="90" as="geometry" />
        </mxCell>
        <mxCell id="s4e2oOpzXgxO0QDyMeS1-43" style="edgeStyle=orthogonalEdgeStyle;rounded=0;orthogonalLoop=1;jettySize=auto;html=1;exitX=1;exitY=0.5;exitDx=0;exitDy=0;entryX=0;entryY=0.5;entryDx=0;entryDy=0;" edge="1" parent="1" source="s4e2oOpzXgxO0QDyMeS1-28" target="s4e2oOpzXgxO0QDyMeS1-21">
          <mxGeometry relative="1" as="geometry" />
        </mxCell>
        <mxCell id="s4e2oOpzXgxO0QDyMeS1-44" value="publishes" style="edgeLabel;html=1;align=center;verticalAlign=middle;resizable=0;points=[];" vertex="1" connectable="0" parent="s4e2oOpzXgxO0QDyMeS1-43">
          <mxGeometry x="0.4351" relative="1" as="geometry">
            <mxPoint as="offset" />
          </mxGeometry>
        </mxCell>
        <mxCell id="s4e2oOpzXgxO0QDyMeS1-28" value="pipeline pod(s)" style="rounded=0;whiteSpace=wrap;html=1;fontFamily=Red Hat Text;" vertex="1" parent="1">
          <mxGeometry x="376" y="732" width="120" height="90" as="geometry" />
        </mxCell>
        <mxCell id="s4e2oOpzXgxO0QDyMeS1-26" value="" style="aspect=fixed;sketch=0;html=1;dashed=0;whitespace=wrap;fillColor=#2875E2;strokeColor=#ffffff;points=[[0.005,0.63,0],[0.1,0.2,0],[0.9,0.2,0],[0.5,0,0],[0.995,0.63,0],[0.72,0.99,0],[0.5,1,0],[0.28,0.99,0]];shape=mxgraph.kubernetes.icon2;prIcon=pod;kubernetesLabel=1;fontFamily=Red Hat Text;" vertex="1" parent="1">
          <mxGeometry x="360" y="700" width="50" height="48" as="geometry" />
        </mxCell>
        <mxCell id="s4e2oOpzXgxO0QDyMeS1-41" style="edgeStyle=orthogonalEdgeStyle;rounded=0;orthogonalLoop=1;jettySize=auto;html=1;exitX=0.5;exitY=0;exitDx=0;exitDy=0;entryX=0.5;entryY=1;entryDx=0;entryDy=0;" edge="1" parent="1" source="s4e2oOpzXgxO0QDyMeS1-39" target="s4e2oOpzXgxO0QDyMeS1-23">
          <mxGeometry relative="1" as="geometry" />
        </mxCell>
        <mxCell id="s4e2oOpzXgxO0QDyMeS1-39" value="metadata-grpc&amp;nbsp;NetworkPolicy" style="rounded=0;whiteSpace=wrap;html=1;fontFamily=Red Hat Text;" vertex="1" parent="1">
          <mxGeometry x="690" y="993" width="120" height="90" as="geometry" />
        </mxCell>
        <mxCell id="s4e2oOpzXgxO0QDyMeS1-40" value="" style="aspect=fixed;sketch=0;html=1;dashed=0;whitespace=wrap;fillColor=#2875E2;strokeColor=#ffffff;points=[[0.005,0.63,0],[0.1,0.2,0],[0.9,0.2,0],[0.5,0,0],[0.995,0.63,0],[0.72,0.99,0],[0.5,1,0],[0.28,0.99,0]];shape=mxgraph.kubernetes.icon2;prIcon=netpol" vertex="1" parent="1">
          <mxGeometry x="670" y="970" width="50" height="48" as="geometry" />
        </mxCell>
        <mxCell id="s4e2oOpzXgxO0QDyMeS1-42" style="edgeStyle=orthogonalEdgeStyle;rounded=0;orthogonalLoop=1;jettySize=auto;html=1;exitX=1;exitY=0.5;exitDx=0;exitDy=0;entryX=0;entryY=0.5;entryDx=0;entryDy=0;" edge="1" parent="1" source="Q_NvquECfaBA3BP7OeUw-18" target="s4e2oOpzXgxO0QDyMeS1-39">
          <mxGeometry relative="1" as="geometry" />
        </mxCell>
      </root>
    </mxGraphModel>
  </diagram>
</mxfile>
